<?xml version='1.0' encoding='utf-8'?>
<svg xmlns="http://www.w3.org/2000/svg" width="307.07251mm" height="270.18124mm" viewBox="0 0 307.07251 270.18124" version="1.1" id="svg5" xml:space="preserve"><defs id="defs2" /><g id="layer1"><path style="fill:#000000" d="m 165.04460000000017 269.9282000000003 c -4.5491,-0.3701 -8.9481,-1.2209 -17.1979,-3.326 -17.9037,-4.5687 -26.1049,-6.3703 -37.579,-8.2556 -11.8024,-1.9392 -19.7811,-2.6659 -29.3606,-2.674 -3.4197,0 -7.6464,-0.1223 -9.3927,-0.2654 -10.8816,-0.8916 -20.1105,-4.9214 -26.9757,-11.7791 -2.7973,-2.7943 -5.1806,-5.8555 -9.6744,-12.4263 -4.1622,-6.0861 -5.0786,-7.3203 -10.3139,-13.8907 -4.7859,-6.0062 -7.4339,-9.8623 -10.5021,-15.2931 -5.1373,-9.0931 -8.2829,-17.8892 -10.3794,-29.0246 -1.1045,-5.8662 -3.1199,-19.1918 -3.4814,-23.0187 -0.5305,-5.6166 0.08,-11.7386 1.6353,-16.403 2.0888,-6.2635 4.9864,-10.5863 13.4794,-20.1095 7.7525,-8.6928 12.3032,-14.8655 19.5064,-26.4583 6.5815,-10.5923 8.4807,-12.5118 18.185,-18.3784 6.3858,-3.8605 13.1923,-8.3818 15.351,-10.1972 1.0158,-0.8543 3.99,-3.5917 6.6094,-6.0833 9.3295,-8.874 9.9203,-9.2762 28.575,-19.4482 12.0258,-6.5575 14.5536,-8.0696 24.0771,-14.402 11.0068,-7.3188 12.135,-8.0107 17.1979,-10.546 11.2666,-5.6418 26.3847,-8.5846 40.241,-7.8331 9.7271,0.5276 19.3979,3.3476 33.0486,9.6372 9.5715,4.4101 15.297,7.9438 19.6245,12.112 5.4825,5.2805 7.5683,9.5338 11.0592,22.5514 2.3008,8.5797 4.1587,13.621 7.6993,20.8917 2.817,5.7848 5.0067,9.465 10.4758,17.6071 4.2388,6.3103 6.4268,9.8046 9.27,14.8044 1.8533,3.2591 10.3205,19.1432 13.187,24.7385 1.7893,3.4925 4.4631,8.4931 5.9418,11.1125 3.9075,6.9216 4.6728,8.3695 6.3419,11.9989 2.7115,5.8962 4.4718,11.9227 5.1895,17.7667 0.8232,6.702 -1.1044,20.8948 -4.3485,32.0181 -5.0218,17.2189 -6.6091,22.4703 -7.45,24.6476 -1.8518,4.7949 -3.5623,7.7364 -11.9745,20.5927 -9.6827,14.7978 -17.8976,19.6036 -38.1608,22.3249 -1.6735,0.2247 -5.3049,0.6583 -8.0698,0.9635 -5.782,0.6383 -11.5172,1.4375 -20.9208,2.9154 -10.1416,1.5938 -19.1823,2.5759 -29.0854,3.1594 -5.28,0.3111 -17.8504,0.2941 -21.8282,-0.03 z m -5.1159,-8.3171 c 0.2339,-0.6095 -0.1264,-0.8553 -2.8754,-1.9616 -4.5803,-1.8432 -9.5229,-4.2135 -14.4391,-6.9245 -2.6811,-1.4785 -5.9376,-3.1464 -7.2367,-3.7065 -4.8812,-2.1044 -12.2005,-3.9554 -17.6845,-4.4724 -3.6899,-0.3478 -5.478,-0.2482 -12.6412,0.7044 -9.0794,1.2074 -17.9973,1.1419 -22.8388,-0.1675 -3.4049,-0.921 -8.381,-3.6135 -13.4767,-7.2921 -4.4835,-3.2367 -7.1861,-4.7561 -11.7443,-6.6028 -2.3117,-0.9366 -3.0565,-1.6966 -6.027,-6.1504 -2.8663,-4.2975 -6.1389,-7.7126 -9.4819,-9.8947 -1.2375,-0.8077 -4.8689,-2.7804 -8.0698,-4.3837 -3.2008,-1.6033 -6.4417,-3.4121 -7.2019,-4.0195 -0.7601,-0.6074 -2.1063,-2.0654 -2.9915,-3.2401 -1.8225,-2.4186 -5.6438,-9.888 -6.735,-13.1647 -0.5354,-1.6077 -0.8249,-2.128 -1.1838,-2.128 -1.066,0 -1.0493,0.5907 0.098,3.4396 1.7436,4.3307 4.4318,9.7478 5.9819,12.0544 2.462,3.6637 3.8892,4.8116 9.2113,7.4087 11.6015,5.6616 15.007,8.4296 19.2416,15.6403 3.3264,5.664 3.777,6.0651 9.113,8.1102 3.0142,1.1552 5.415,2.5387 9.6573,5.5651 5.188,3.7011 10.3502,6.1498 15.2135,7.2165 3.4122,0.7484 12.8348,0.677 18.9178,-0.1433 7.1554,-0.965 11.2358,-1.0061 16.9333,-0.1703 10.5634,1.5495 13.2592,2.344 20.5052,6.0428 9.5102,4.8546 11.912,6.0264 15.0812,7.3577 3.2063,1.347 4.4083,1.5739 4.6737,0.8824 z m 105.1114,-12.5338 c 0.6855,-0.4338 -0.1708,-1.0745 -1.4359,-1.0745 -1.6022,0 -4.9005,-0.616 -9.861,-1.8418 -11.2121,-2.7707 -16.8343,-3.0281 -22.5141,-1.031 -5.74,2.0184 -6.3259,2.1481 -9.6959,2.1475 -2.5759,-6e-4 -4.0785,-0.1798 -7.9633,-0.9502 -9.3017,-1.8446 -17.3885,-1.9325 -27.8282,-0.3026 -3.7459,0.5849 -10.6008,0.7996 -13.234,0.4146 -2.7907,-0.4081 -4.1274,-0.8788 -9.0878,-3.2006 -6.3885,-2.9902 -8.4356,-3.8118 -15.8774,-6.3727 -19.4634,-6.6976 -18.7131,-6.4713 -30.6251,-9.2379 -6.8198,-1.5839 -10.9792,-2.86 -21.3259,-6.5427 -7.3278,-2.6081 -10.2545,-3.8762 -12.5677,-5.4454 -1.929,-1.3085 -5.5903,-4.5227 -6.9514,-6.1023 -1.3018,-1.511 -2.0444,-1.7227 -2.0444,-0.5831 0,1.2084 5.4975,6.2548 9.5017,8.722 2.5647,1.5803 4.5787,2.4056 12.8556,5.268 9.917,3.4297 14.4287,4.7668 21.6487,6.4157 7.8949,1.8031 9.349,2.1962 14.3346,3.875 19.4154,6.5375 24.7889,8.5581 30.811,11.586 7.3209,3.6809 11.3377,4.1437 22.7958,2.6267 7.3203,-0.9693 15.1569,-1.2792 19.8684,-0.7859 1.6436,0.1721 5.1317,0.7322 7.7513,1.2446 4.3889,0.8586 5.0541,0.9231 8.4672,0.8213 3.6306,-0.1083 3.7831,-0.1373 7.673,-1.4602 5.1482,-1.7508 6.8037,-2.0236 11.104,-1.83 3.9924,0.1797 4.5394,0.2723 12.8407,2.1716 3.4198,0.7824 6.5749,1.4708 7.0115,1.5298 1.5499,0.2094 3.9743,0.1749 4.3486,-0.062 z m -111.4614,-2.2829 c 0.2591,-0.6751 -0.2146,-0.9094 -3.5171,-1.7395 -3.1874,-0.8013 -8.0769,-2.2361 -14.7826,-4.338 -2.0373,-0.6386 -6.8593,-2.0689 -10.7156,-3.1784 -3.8563,-1.1095 -7.6472,-2.2051 -8.4241,-2.4347 -1.2116,-0.3579 -1.4464,-0.364 -1.6494,-0.043 -0.1302,0.2059 -0.2031,0.4934 -0.162,0.6389 0.089,0.3169 5.2742,2.0125 11.2938,3.6937 2.4011,0.6706 7.0085,2.0557 10.2387,3.0781 7.1638,2.2674 15.8243,4.6975 16.8233,4.7206 0.4361,0.01 0.8007,-0.1519 0.895,-0.3977 z m 113.4153,-3.156 c 3.5244,-0.918 5.2889,-2.4927 7.96,-7.1039 0.9984,-1.7237 2.7723,-4.4621 3.942,-6.0854 5.8517,-8.1213 8.2047,-12.6356 9.2999,-17.8419 0.2059,-0.9793 0.5674,-4.3399 0.8031,-7.468 0.9616,-12.7595 2.2513,-18.8586 6.0704,-28.7062 2.5305,-6.5251 3.2638,-11.3838 2.9749,-19.7114 -0.3089,-8.9024 -1.5985,-12.7864 -7.9068,-23.8134 -1.3733,-2.4006 -3.3685,-6.0316 -4.4337,-8.0689 -1.0652,-2.0373 -3.0327,-5.6687 -4.3724,-8.0698 -1.3396,-2.4011 -3.5428,-6.3897 -4.8959,-8.8636 -8.3196,-15.2103 -10.3563,-18.6163 -16.2167,-27.1198 -5.3889,-7.8193 -8.3734,-14.203 -12.679,-27.1197 -6.3807,-19.1426 -8.9463,-24.5767 -13.9334,-29.5121 -3.5018,-3.4655 -12.2209,-9.0005 -18.6018,-11.8087 -2.1023,-0.9252 -12.094,-4.5845 -12.5181,-4.5845 -0.3077,0 2.5146,5.5603 4.5434,8.9511 3.0111,5.0326 4.5459,6.8975 8.2362,10.0082 3.5017,2.9517 5.7262,4.9857 7.3015,6.676 0.5952,0.6388 1.8561,1.6734 2.802,2.2991 3.336,2.2069 6.4991,5.8838 7.9268,9.2146 0.7844,1.8299 2.962,9.0957 4.8844,16.2969 0.9517,3.5652 2.4553,8.5659 3.3413,11.1125 0.886,2.5466 2.1466,6.5352 2.8013,8.8635 0.6547,2.3284 1.7705,6.1384 2.4796,8.4667 2.0981,6.8895 3.4143,12.419 5.7939,24.3417 1.7977,9.007 2.3429,10.8663 4.3738,14.9158 2.0526,4.0926 2.4379,5.4413 2.6257,9.1902 0.2736,5.4599 1.245,7.5518 6.3654,13.7078 2.3501,2.8254 3.3683,4.3035 4.3744,6.35 1.5769,3.2079 1.906,4.4563 2.7672,10.4983 0.7551,5.2973 1.1977,7.5649 2.1384,10.9545 1.4259,5.1382 1.9833,7.8539 2.5253,12.3031 0.3102,2.5467 0.9823,6.7734 1.4935,9.3928 0.8101,4.1507 0.9312,5.2892 0.9433,8.8635 0.015,4.3687 -0.2292,6.6287 -1.2848,11.9062 -0.6812,3.4056 -0.94,4.0321 -1.4536,3.5184 -0.2124,-0.2124 -0.1427,-1.1427 0.2568,-3.4263 1.4862,-8.4941 1.4353,-13.5409 -0.2102,-20.8399 -0.5878,-2.6073 -1.2593,-6.4173 -1.4923,-8.4667 -0.5141,-4.5226 -0.8843,-6.36 -2.2227,-11.0311 -1.2653,-4.416 -2.2137,-8.8748 -2.7796,-13.0679 -1.0623,-7.8716 -1.8605,-9.637 -7.5575,-16.7149 -4.4871,-5.5746 -5.4364,-7.7539 -5.8194,-13.3598 -0.2683,-3.9275 -0.4684,-4.6268 -2.4636,-8.6095 -2.1907,-4.373 -3.0109,-7.3966 -5.1887,-19.1273 -1.2976,-6.9892 -3.2108,-14.7735 -5.1374,-20.902 -0.8006,-2.5467 -1.8861,-6.2376 -2.4123,-8.2021 -0.5261,-1.9646 -1.8371,-6.1913 -2.9133,-9.3927 -1.0762,-3.2015 -2.4475,-7.6663 -3.0474,-9.9219 -1.3413,-5.0431 -4.2385,-14.6557 -5.1354,-17.0385 -0.8392,-2.2296 -2.1038,-4.1308 -3.9675,-5.9648 -1.6235,-1.5974 -2.1798,-1.631 -1.1462,-0.069 3.2691,4.9399 5.0492,12.1173 5.755,23.2046 0.5497,8.6352 1.1738,11.0521 4.9535,19.1823 3.8451,8.2709 5.0137,11.0505 5.6175,13.3614 0.6609,2.5296 1.8905,9.7553 2.6563,15.6105 0.7179,5.4887 2.0399,13.5898 2.5474,15.6104 0.2193,0.8731 0.7579,2.7186 1.1968,4.101 0.439,1.3825 1.4442,5.0059 2.2339,8.0522 0.7896,3.0462 1.8219,6.3789 2.294,7.4059 1.0194,2.2178 3.0253,4.9587 6.0172,8.2221 2.569,2.8021 4.3192,5.0917 5.1624,6.7536 1.3142,2.59 1.6228,4.0852 4.0938,19.837 0.4223,2.6922 1.1164,6.2045 1.5425,7.8053 0.426,1.6007 1.1375,4.2796 1.5811,5.9531 1.0165,3.8351 1.3283,6.1227 1.6437,12.0593 0.516,9.7146 0.3691,11.0051 -1.7593,15.4544 -1.5719,3.286 -2.1277,4.8888 -2.7535,7.9404 -1.0616,5.1769 -2.6713,6.879 -6.7057,7.0907 -1.342,0.07 -3.2045,-0.054 -4.8121,-0.3215 -1.4424,-0.2401 -4.1973,-0.5884 -6.1219,-0.7741 -1.9245,-0.1857 -3.5763,-0.4148 -3.6707,-0.5091 -0.094,-0.094 -0.094,-0.373 4e-4,-0.6193 0.1513,-0.3942 0.4798,-0.4285 2.7447,-0.2861 1.415,0.089 4.5349,0.4173 6.933,0.7295 5.1764,0.6741 6.5356,0.5207 7.8684,-0.8877 1.1683,-1.2346 1.3234,-1.6456 1.9318,-5.1176 0.6401,-3.6526 1.3197,-5.9007 2.509,-8.3006 1.8377,-3.7081 2.0531,-5.2521 1.7168,-12.3031 -0.3811,-7.9919 -0.6485,-9.8208 -2.5142,-17.1979 -0.9201,-3.6381 -1.9304,-8.4006 -2.2451,-10.5834 -0.9784,-6.786 -2.6324,-15.159 -3.4219,-17.3223 -0.9201,-2.5211 -2.1273,-4.314 -5.354,-7.9512 -5.5622,-6.2697 -6.4678,-7.9848 -8.4208,-15.9476 -0.5783,-2.358 -1.5922,-6.0136 -2.2532,-8.1237 -1.6009,-5.1105 -2.2704,-8.5326 -3.8411,-19.6327 -1.4866,-10.5051 -2.3654,-15.2992 -3.3369,-18.2027 -0.3652,-1.0914 -2.0847,-4.9151 -3.8211,-8.4972 -3.3467,-6.9042 -5.0082,-11.3814 -5.6651,-15.2656 -0.2138,-1.2643 -0.5709,-4.6799 -0.7936,-7.5903 -0.9111,-11.9088 -1.8127,-15.5832 -5.647,-23.0138 -1.7061,-3.3063 -2.4505,-4.133 -8.1045,-9.0008 -2.0283,-1.7462 -4.265,-3.752 -4.9704,-4.4572 -2.9066,-2.9061 -5.9569,-7.6719 -9.5065,-14.853 -1.152,-2.3307 -2.2896,-4.3861 -2.5279,-4.5674 -0.2382,-0.1814 -1.3933,-0.6149 -2.5668,-0.9635 -3.1879,-0.9469 -3.5888,-1.0169 -3.5888,-0.6262 0,0.1868 1.0302,2.0048 2.2893,4.0399 4.6917,7.5835 4.8253,8.074 5.1172,18.7816 0.2681,9.8374 0.3697,10.4448 3.189,19.0711 1.1468,3.5086 2.8137,9.0469 3.7044,12.3072 1.8631,6.8202 2.7093,9.137 5.016,13.7331 2.1985,4.3807 2.7732,6.1568 3.7243,11.5094 2.4636,13.8646 4.6842,24.7379 5.9167,28.9719 0.5529,1.8991 0.5987,2.3053 0.2941,2.611 -0.1984,0.1991 -0.4891,0.2827 -0.646,0.1857 -0.7616,-0.4707 -2.3155,-7.0243 -5.3271,-22.4671 -2.9565,-15.1603 -2.9012,-14.9558 -5.3094,-19.6605 -2.4813,-4.8476 -3.5081,-7.5337 -5.4244,-14.189 -0.8053,-2.7969 -2.3554,-7.7544 -3.4447,-11.0166 -1.0892,-3.2622 -2.2668,-7.0336 -2.6169,-8.381 -0.6119,-2.3549 -1.1824,-7.1985 -1.1881,-10.0862 0,-1.0156 -0.146,-1.5393 -0.5455,-1.9844 -0.2985,-0.3325 -1.4836,-2.0334 -2.6335,-3.7796 -1.1499,-1.7463 -3.6441,-4.9388 -5.5427,-7.0945 -1.8985,-2.1557 -3.4519,-4.0904 -3.4519,-4.2994 0,-1.0431 1.1992,-0.1932 3.8503,2.7288 3.2946,3.6311 5.8625,6.9724 7.0026,9.1114 0.4456,0.8361 0.9349,1.5972 1.0874,1.6914 0.1902,0.1175 0.2473,-1.1861 0.1821,-4.1582 -0.093,-4.2159 -0.1181,-4.3832 -0.9728,-6.3769 -0.4827,-1.1261 -1.54,-3.0906 -2.3496,-4.3657 -0.8095,-1.275 -2.1089,-3.384 -2.8875,-4.6867 -0.7786,-1.3027 -1.5305,-2.4834 -1.6708,-2.6238 -0.3518,-0.3517 -2.8014,0.2177 -5.4731,1.2724 -2.1283,0.8401 -8.2936,4.4799 -8.2936,4.8962 0,0.1179 0.7538,0.8761 1.6751,1.685 2.2518,1.9769 3.7173,4.1809 7.7739,11.6908 8.6759,16.0615 9.6837,18.136 11.7357,24.156 1.8704,5.4873 2.3611,8.077 2.546,13.4367 0.2064,5.9841 -0.2393,7.9157 -2.5253,10.9454 -1.0562,1.3997 -1.0757,1.4621 -0.6608,2.1166 0.9286,1.4652 2.7147,3.6593 4.9469,6.077 2.8612,3.099 4.2313,5.1293 5.0006,7.4107 0.5712,1.6935 0.5875,2.0739 0.6254,14.5712 0.053,17.4278 0.4644,20.9941 3.9323,34.0769 1.0766,4.0612 1.392,7.5612 0.9726,10.7913 -0.5048,3.8882 -1.0575,4.9092 -8.0799,14.9276 -5.629,8.0305 -6.0573,9.3861 -7.1885,22.7542 -0.6293,7.4363 -1.4284,10.961 -3.1514,13.9012 -0.388,0.6621 -1.968,2.7165 -3.511,4.5654 -3.5297,4.2294 -4.9163,6.3495 -7.1106,10.8717 -0.9613,1.9813 -2.262,4.3762 -2.8904,5.3221 -1.0769,1.6208 -4.8985,5.5294 -11.6974,11.9634 -1.6371,1.5493 -2.9765,2.8822 -2.9765,2.962 0,0.5986 4.0941,1.9242 9.4481,3.0591 9.7145,2.0592 18.392,2.806 29.7102,2.5569 8.3051,-0.1828 12.5343,-0.5589 19.8616,-1.7662 7.075,-1.1658 11.0154,-1.5773 15.1047,-1.5773 5.9084,0 8.6445,0.7008 15.6215,4.0014 6.0315,2.8533 8.1854,3.3219 11.4095,2.4821 z m -68.7442,-6.7166 c -1.2528,-0.3276 -2.2686,-0.941 -3.8446,-2.3215 -2.3619,-2.0689 -3.4811,-2.8914 -4.8866,-3.5912 -1.5835,-0.7884 -5.094,-2.0887 -7.7391,-2.8666 -1.6924,-0.4977 -1.9182,-0.639 -1.9182,-1.1998 0,-0.4294 0.1503,-0.6354 0.463,-0.6348 0.8538,0 8.3805,2.6797 10.1751,3.6204 0.976,0.5116 2.8998,1.8694 4.2751,3.0173 2.7144,2.2657 3.3818,2.6218 4.9145,2.6218 1.4983,0 2.9269,-0.5915 7.0275,-2.9097 4.2591,-2.4077 6.1607,-3.1764 10.4317,-4.2171 4.4548,-1.0854 5.795,-1.2362 6.0099,-0.6764 0.241,0.6282 -0.1295,0.7912 -3.318,1.4599 -5.021,1.0529 -8.1155,2.2358 -12.4751,4.7687 -4.7146,2.739 -7.015,3.4782 -9.1152,2.929 z m 12.4037,-12.3219 c -0.2224,-0.5795 0.015,-0.8059 1.6804,-1.6002 6.2644,-2.9883 13.4517,-4.1164 20.3872,-3.1998 4.7876,0.6327 19.4334,3.8174 19.9552,4.3392 0.3998,0.3997 0.01,0.845 -0.7458,0.845 -0.3629,0 -3.898,-0.705 -7.8557,-1.5667 -9.1395,-1.9898 -12.4403,-2.4801 -16.7208,-2.4836 -4.7372,0 -8.9881,0.9718 -14.6103,3.3532 -1.9231,0.8146 -1.899,0.811 -2.0902,0.3129 z m -17.0339,-3.1547 c 0,-1.1475 9.8226,-12.0165 10.6196,-11.7508 0.6667,0.2222 0.3709,0.7142 -1.8883,3.141 -1.237,1.3287 -3.5029,3.8606 -5.0355,5.6266 -2.6452,3.0479 -3.6958,3.8959 -3.6958,2.9832 z m -6.0131,-0.9926 c -0.6098,-0.6098 3.1134,-7.3189 7.5063,-13.5261 1.5255,-2.1556 2.822,-4.17 2.881,-4.4765 0.059,-0.3064 0.2792,-0.7492 0.4893,-0.9839 1.1319,-1.2648 2.7327,-6.0963 4.1299,-12.4654 1.851,-8.437 2.8203,-11.546 3.5237,-11.301 0.4469,0.1557 0.3881,0.5018 -1.0893,6.4062 -0.7282,2.9105 -1.702,6.899 -2.1639,8.8636 -0.6878,2.9248 -1.5774,5.4962 -3.0906,8.9332 -0.2211,0.5022 3.2626,2.0105 9.0403,3.914 6.1611,2.0298 8.6208,2.4653 15.1325,2.6791 5.3233,0.1748 6.1485,0.3342 5.256,1.0152 -1.1257,0.8588 -11.2962,0.3453 -15.7785,-0.7966 -3.2877,-0.8376 -9.74,-3.0981 -11.9967,-4.2031 l -2.2815,-1.117 -3.357,4.8297 c -1.8463,2.6564 -4.2853,6.5318 -5.42,8.6121 -1.1346,2.0803 -2.1561,3.8136 -2.2699,3.8518 -0.1138,0.038 -0.344,-0.068 -0.5116,-0.2353 z m 43.1127,-20.2732 c -4.7934,-6.3998 -7.7483,-10.302 -12.2716,-16.2058 -2.4818,-3.2392 -3.6583,-4.9613 -3.6603,-5.3578 -6e-4,-0.1091 0.2279,-0.1984 0.5077,-0.1984 0.2885,0 1.0162,0.6014 1.6808,1.3891 2.9192,3.4595 16.1945,20.871 18.5481,24.327 1.0176,1.4944 1.1274,2.3297 0.306,2.3297 -0.2223,0 -2.5221,-2.8277 -5.1107,-6.2838 z m 50.6372,-4.749 c -0.4327,-2.7907 -0.6916,-5.7397 -0.5445,-6.2032 0.2263,-0.7128 0.7089,-0.4862 0.9634,0.4522 0.3561,1.3131 0.3892,6.5294 0.042,6.6503 -0.1806,0.063 -0.3689,-0.3043 -0.4612,-0.8993 z m -18.3701,-13.5937 c -0.1322,-0.3527 -0.6199,-3.201 -1.0838,-6.3297 -0.4638,-3.1287 -1.2535,-7.502 -1.7548,-9.7185 -1.011,-4.47 -1.0783,-5.0982 -0.5466,-5.0982 0.8907,0 2.1167,5.1547 3.4879,14.6649 0.8046,5.5801 0.8681,6.3923 0.5264,6.734 -0.3417,0.3417 -0.4176,0.3113 -0.6291,-0.2525 z m -51.7294,-2.0276 c -0.076,-0.1238 0.4621,-1.2913 1.1969,-2.5944 1.7015,-3.0171 5.4662,-11.8511 7.0986,-16.6567 0.692,-2.0373 1.5808,-5.1329 1.975,-6.8791 1.023,-4.5313 1.2709,-5.2917 1.7256,-5.2917 0.6004,0 0.3817,1.75 -0.7937,6.35 -1.3608,5.3257 -2.2088,7.7669 -5.1676,14.8759 -3.1583,7.5885 -5.3538,11.2978 -6.0348,10.196 z m 66.3416,-1.4343 c -0.256,-0.4143 -0.8795,-5.8014 -0.8907,-7.6965 -0.01,-1.5713 0.3398,-1.9878 0.7762,-0.926 0.2283,0.5554 0.8023,6.3795 0.8023,8.1409 0,0.8008 -0.3424,1.0405 -0.6878,0.4816 z m -34.0843,-3.9787 c -3.0043,-4.3402 -7.992,-11.2081 -10.4341,-14.3672 -8.9743,-11.6096 -9.8022,-12.8323 -8.6884,-12.8323 0.5406,0 1.6054,1.25 7.1034,8.3392 7.5718,9.763 13.1891,17.6477 13.1891,18.5125 0,0.1846 -0.1684,0.4753 -0.3742,0.6461 -0.2978,0.2471 -0.4605,0.1861 -0.7958,-0.2983 z m 45.5716,-4.8466 c -0.081,-0.081 -0.1035,-5.2299 -0.049,-11.4415 0.083,-9.5052 0.034,-11.5442 -0.3067,-12.8744 -0.2227,-0.8693 -1.3241,-3.3104 -2.4476,-5.4246 -2.752,-5.1789 -3.8771,-7.5714 -6.8536,-14.5729 -1.3919,-3.2742 -4.3615,-9.8184 -6.599,-14.5427 -2.2375,-4.7243 -4.0682,-8.6832 -4.0682,-8.7974 0,-0.1143 0.1766,-0.2078 0.3924,-0.2078 0.2158,0 0.7104,0.6251 1.0991,1.3891 2.0144,3.9597 7.3087,15.5851 11.5974,25.4661 1.2632,2.9105 2.9616,6.4823 3.7743,7.9375 2.5721,4.6058 3.5039,6.4006 3.9364,7.5822 0.3498,0.9558 0.4374,2.863 0.5204,11.3355 0.055,5.6026 0.013,11.0699 -0.093,12.1496 -0.1727,1.7594 -0.4748,2.4291 -0.9026,2.0013 z m -79.8558,-1.8386 c 0,-0.2132 0.7795,-1.5774 1.7322,-3.0314 0.9527,-1.4541 2.5136,-4.2686 3.4686,-6.2546 1.5195,-3.16 1.7844,-3.5628 2.1213,-3.2259 0.3369,0.3369 0.2337,0.7285 -0.826,3.1366 -1.3504,3.0686 -2.4775,5.0067 -4.5619,7.8448 -1.3752,1.8725 -1.9342,2.3148 -1.9342,1.5305 z m 62.1965,-18.1123 c -1.14,-1.2205 -4.2527,-7.5235 -4.2527,-8.6117 0,-1.0086 0.7433,-1.7278 1.7856,-1.7278 0.8821,0 2.5421,1.7892 4.7767,5.1486 2.2261,3.3466 2.2927,3.8047 0.7137,4.9117 -1.6776,1.1762 -2.145,1.2193 -3.0233,0.2792 z m 1.8327,-2.4044 c 0,-0.6122 -3.3567,-5.5539 -3.7726,-5.5539 -0.269,0 2.2633,4.8899 2.9084,5.6162 0.3954,0.4451 0.8642,0.4113 0.8642,-0.062 z m -59.6904,1.7476 c -0.1026,-0.2673 0.5407,-1.2048 1.8574,-2.7067 3.9528,-4.5092 4.5785,-7.1278 3.0802,-12.8926 -0.4487,-1.7261 -1.8859,-6.0727 -3.1939,-9.6591 -1.3081,-3.5863 -2.3783,-6.7369 -2.3783,-7.0013 0,-0.314 0.1594,-0.4499 0.4598,-0.392 0.9698,0.1867 6.0569,14.3887 6.8532,19.1325 0.7465,4.4465 -0.044,7.0861 -3.2488,10.8416 -2.0107,2.3565 -3.1973,3.2829 -3.4296,2.6776 z m 69.0037,-1.269 c -0.1746,-0.1746 -0.3175,-0.6275 -0.3175,-1.0064 0,-0.9143 1.244,-3.3777 1.8767,-3.7163 0.4192,-0.2244 0.5903,-0.1255 1.0379,0.5998 0.7669,1.2427 0.8959,1.9576 0.5177,2.8705 -0.5193,1.2539 -2.3694,1.9977 -3.1148,1.2524 z m 1.7513,-2.5929 c 0,-0.2183 -0.1525,-0.04 -0.3449,0.3969 -0.1924,0.4365 -0.2771,0.9116 -0.1882,1.0556 0.1631,0.2645 0.5241,-0.719 0.5331,-1.4525 z m 5.6975,-2.5744 c -0.1,-0.3972 -0.5862,-1.4131 -1.0811,-2.2575 -0.8487,-1.4482 -1.0472,-2.4812 -0.4638,-2.4141 0.3818,0.044 2.4991,4.1 2.5049,4.7986 0.01,0.8489 -0.7398,0.7501 -0.96,-0.127 z m -18.2049,-10.8237 c -0.6773,-1.8392 -1.1693,-3.5061 -1.0933,-3.7042 0.2684,-0.6995 0.6467,-0.3444 1.0959,1.0289 0.2499,0.7639 0.7953,2.2553 1.2119,3.3141 0.8484,2.1562 0.927,2.7051 0.3872,2.7051 -0.2328,0 -0.8274,-1.2413 -1.6017,-3.3439 z m -0.7909,-6.1564 c -0.082,-0.1319 -0.2697,-1.4713 -0.4181,-2.9765 -0.1485,-1.5052 -0.2972,-2.9719 -0.3304,-3.2594 -0.073,-0.628 0.7296,-0.8748 0.9528,-0.2931 0.2854,0.7439 0.7942,5.8941 0.6256,6.3334 -0.1827,0.4763 -0.5962,0.5738 -0.8299,0.1956 z m -11.6258,-17.1151 c -1.3713,-2.8245 -1.6903,-3.6982 -1.4541,-3.9828 0.2451,-0.2952 0.3798,-0.3011 0.709,-0.031 0.6,0.4931 3.2649,6.2946 3.1736,6.909 -0.1816,1.2218 -0.7705,0.5195 -2.4285,-2.8956 z m 5.8245,-0.041 c -1.8903,-3.7689 -5.1942,-12.0802 -5.1942,-13.0667 0,-0.2713 0.1552,-0.4932 0.3448,-0.4932 0.1997,0 0.7665,1.1966 1.3473,2.8442 1.2123,3.4389 3.32,8.52 4.5355,10.9336 0.8264,1.6411 0.9016,2.0972 0.3456,2.0972 -0.1198,0 -0.7404,-1.0418 -1.379,-2.3151 z m -36.8049,0.1518 c -1.7106,-4.8424 -2.785,-8.1236 -2.785,-8.5056 -1e-4,-0.3157 0.16,-0.4529 0.4629,-0.3969 0.3217,0.059 0.8982,1.1759 1.8886,3.6574 1.5268,3.8257 1.8079,5.3405 1.021,5.5009 -0.2551,0.052 -0.5195,-0.063 -0.5875,-0.2558 z m 4.0279,-3.8918 c -0.3533,-0.4199 -1.3719,-1.938 -2.2635,-3.3735 -0.8916,-1.4355 -2.4486,-3.5602 -3.4601,-4.7215 -1.6969,-1.9483 -1.9986,-2.5187 -1.3324,-2.5187 0.404,0 2.4787,2.0114 3.6775,3.5653 1.358,1.7602 4.503,6.9653 4.503,7.4526 0,0.5741 -0.4319,0.4188 -1.1245,-0.4042 z m 22.8795,-16.1038 c -0.2973,-0.6912 -1.2657,-2.9082 -2.1519,-4.9267 -0.8863,-2.0184 -1.6114,-3.8341 -1.6114,-4.0349 0,-0.5565 0.4717,-0.4355 0.8983,0.2304 0.6235,0.9732 4.1288,9.0853 4.1288,9.555 0,0.8777 -0.7392,0.3958 -1.2638,-0.8238 z m 1.4285,-4.02 c -0.9637,-1.605 -1.7522,-3.0983 -1.7522,-3.3186 0,-1.0731 0.8989,-0.1288 2.3412,2.4594 1.758,3.1544 1.8978,3.5052 1.4615,3.6667 -0.164,0.061 -1.0868,-1.2026 -2.0505,-2.8075 z m -5.5713,-7.9242 c -0.1225,-0.1983 -2.5309,-7.1713 -2.5309,-7.3278 0,-0.029 0.1856,-0.1233 0.4124,-0.2104 0.3057,-0.1173 0.5765,0.2126 1.0461,1.2745 0.806,1.8226 2.0141,5.9679 1.8273,6.2702 -0.184,0.2977 -0.5689,0.2944 -0.7549,-0.01 z m -34.6667,-8.2964 c -0.1973,-0.473 -1.0952,-3.4793 -1.9953,-6.6807 -0.9002,-3.2015 -2.5848,-9.0012 -3.7438,-12.8883 -2.3329,-7.8249 -2.4757,-8.543 -1.6979,-8.543 0.4299,0 0.7572,0.7609 2.049,4.7625 0.8455,2.6194 2.1441,6.9056 2.8856,9.525 0.7415,2.6194 1.9365,6.8294 2.6556,9.3557 1.0129,3.5583 1.2386,4.676 1.0022,4.9609 -0.4718,0.5685 -0.765,0.4436 -1.1554,-0.4921 z m 28.3105,-9.503 c -0.9672,-2.8099 -2.9058,-7.8989 -3.5501,-9.319 -0.8702,-1.9183 -1.0495,-2.9153 -0.496,-2.7576 0.8018,0.2285 4.6606,9.3316 4.7739,11.2619 0.054,0.925 -0.4829,1.5263 -0.7278,0.8147 z m -9.6215,-18.5523 c -0.3296,-0.3972 -3.222,-7.6678 -3.222,-8.0991 0,-0.1606 0.1852,-0.292 0.4115,-0.292 0.2408,0 0.6832,0.5935 1.0665,1.4307 1.0716,2.3407 2.7241,6.8725 2.5869,7.0944 -0.1881,0.3044 -0.5232,0.2511 -0.8429,-0.134 z m -12.1627,-15.5905 c -1.0174,-1.3518 -2.9939,-3.795 -4.3921,-5.4292 -2.3909,-2.7946 -2.9689,-3.7755 -2.2244,-3.7755 0.5,0 3.0587,2.7613 6.0998,6.583 2.9045,3.65 3.2827,4.3192 2.7097,4.7948 -0.2647,0.2196 -0.7663,-0.2775 -2.193,-2.1731 z m -55.1116,204.777 c 10.3361,-10.1377 9.4974,-9.1044 12.9373,-15.9415 2.8079,-5.581 3.7712,-7.1066 6.5149,-10.3184 5.7754,-6.7605 6.3691,-8.1553 7.1503,-16.801 0.9591,-10.6132 1.4155,-13.5898 2.5095,-16.3654 0.6066,-1.5388 0.6265,-1.5135 -1.3377,-1.7011 -1.7309,-0.1654 -3.4724,-1.1215 -5.5558,-3.0501 -2.3936,-2.2159 -3.3758,-3.9177 -4.9837,-8.6349 -1.7084,-5.0119 -2.5927,-6.8186 -5.5752,-11.3912 -1.3289,-2.0373 -3.2478,-5.3825 -4.2642,-7.4337 -2.8096,-5.6697 -3.3661,-6.1892 -9.7465,-9.0996 -2.1401,-0.9761 -4.7398,-2.3239 -5.7772,-2.9949 -2.8074,-1.8162 -5.7294,-4.7659 -8.4863,-8.567 -3.3356,-4.599 -5.8431,-7.4173 -10.8548,-12.2003 -2.3326,-2.2261 -5.0056,-5.0661 -5.94,-6.3111 -4.1837,-5.5746 -6.7841,-12.6864 -6.7841,-18.5542 0,-1.2451 -0.057,-2.2072 -0.126,-2.1379 -0.069,0.069 -0.3169,1.4286 -0.5501,3.0207 -0.9803,6.6906 -2.3544,11.7621 -4.1537,15.3301 -1.102,2.1851 -3.3974,5.7794 -5.9698,9.3477 -3.806,5.2796 -4.4636,7.1919 -5.8842,17.1106 -1.2616,8.8085 -1.9941,11.3709 -5.3701,18.7854 -3.0798,6.7641 -3.6175,11.0991 -3.5773,28.8396 0.021,9.0584 -0.064,12.132 -0.413,15.0813 -0.8328,7.03 -1.7464,10.0124 -4.9776,16.2493 -2.0926,4.0391 -2.3346,4.6431 -1.9612,4.8948 0.2342,0.1579 1.1135,0.6793 1.9539,1.1587 1.9768,1.1276 4.4814,3.1482 8.8611,7.1489 4.5201,4.129 5.8256,5.0975 8.1971,6.0819 3.6027,1.4954 8.976,2.1624 17.4575,2.1672 4.7342,0 7.2919,0.2985 10.422,1.2055 2.8933,0.8385 8.9978,3.4791 15.857,6.8592 3.0559,1.5059 5.6054,2.7487 5.6654,2.7618 0.06,0.013 2.2032,-2.0301 4.7625,-4.5404 z m -31.9914,-9.75 c -6.7208,-1.0591 -13.7947,-2.638 -17.3258,-3.8671 -3.277,-1.1407 -7.2609,-3.1092 -10.0838,-4.9826 -2.5426,-1.6875 -7.1897,-6.0017 -7.41,-6.8791 -0.3505,-1.3965 0.2923,-1.0911 3.1295,1.4871 7.3267,6.658 13.2956,9.2522 27.7144,12.0452 6.2311,1.207 7.4188,1.5752 7.0432,2.183 -0.2123,0.3434 -0.9531,0.3467 -3.0675,0.014 z m 12.2596,-10.1777 c -0.2832,-0.7381 0.075,-1.206 9.7214,-12.6822 2.7443,-3.265 3.7375,-4.663 6.5785,-9.2604 2.677,-4.3317 4.1862,-6.4374 7.7478,-10.8098 1.2868,-1.5797 2.5688,-3.3215 2.849,-3.8706 0.8055,-1.579 1.0283,-3.8086 0.8751,-8.7599 -0.1628,-5.2648 0.021,-6.4576 0.9958,-6.4576 h 0.6446 l 0.2235,7.0115 c 0.2165,6.7912 0.2058,7.0583 -0.3389,8.5037 -0.616,1.6349 -1.9906,3.6456 -5.0738,7.4219 -1.1078,1.3569 -2.9413,3.8949 -4.0744,5.64 -5.3078,8.1748 -6.6747,10.0873 -10.2102,14.2854 -4.7548,5.6459 -8.4265,9.3927 -9.2044,9.3927 -0.3162,0 -0.6464,-0.1866 -0.734,-0.4147 z m 30.9774,-29.3138 c -0.085,-0.222 0.037,-1.3332 0.2721,-2.4694 0.7416,-3.5866 0.911,-4.05 1.4802,-4.05 0.6726,0 0.6553,0.3037 -0.2178,3.8157 -0.6784,2.7285 -1.1835,3.6185 -1.5345,2.7037 z m -28.756,-10.7722 c -3.5273,-1.8205 -7.1438,-1.9804 -14.8022,-0.6545 -5.868,1.0159 -7.6312,0.8257 -8.0021,-0.863 -0.4147,-1.8881 0.9111,-3.437 7.4414,-8.6937 2.8622,-2.304 6.3449,-5.1115 7.7393,-6.2388 2.7543,-2.2267 3.821,-2.8451 4.9078,-2.8451 1.0765,0 1.6401,0.3951 4.5547,3.1929 2.3951,2.2992 3.0358,2.7528 5.7756,4.0901 2.3203,1.1326 3.207,1.7097 3.589,2.3361 1.0119,1.6596 0.5547,2.5695 -2.7224,5.4171 -1.3513,1.1743 -3.2092,2.7959 -4.1286,3.6036 -0.9719,0.8537 -1.9134,1.4632 -2.249,1.4558 -0.3175,-0.01 -1.2641,-0.3672 -2.1035,-0.8005 z m 3.8772,-3.7586 c 1.1808,-1.0593 2.772,-2.4396 3.536,-3.0674 0.764,-0.6277 1.3891,-1.3082 1.3891,-1.5122 0,-0.2091 -1.2232,-0.9654 -2.8034,-1.7334 -2.4216,-1.1769 -3.1769,-1.7177 -5.5453,-3.9701 -1.508,-1.4342 -2.8978,-2.6076 -3.0883,-2.6076 -0.5711,0 -2.1124,1.1501 -9.5974,7.1615 -7.268,5.8371 -8.2713,6.718 -7.8886,6.9263 0.1186,0.065 1.1682,-0.03 2.3324,-0.2097 9.1709,-1.4173 9.8253,-1.4889 12.1085,-1.325 2.5248,0.1813 5.1621,0.8924 6.4123,1.729 0.4366,0.2921 0.8396,0.5319 0.8957,0.5328 0.056,0 1.0681,-0.8649 2.249,-1.9242 z m -50.1082,-7.9405 c 0,-0.1878 0.6947,-1.2891 1.5438,-2.4474 2.5446,-3.4709 3.9455,-6.1637 5.1771,-9.9512 0.738,-2.2695 1.2789,-3.5318 1.5133,-3.5318 0.2576,0 0.3382,0.2719 0.2745,0.926 -0.1233,1.2657 -1.5455,5.6595 -2.3551,7.2761 -0.8456,1.6885 -3.3084,5.4874 -4.5026,6.9453 -0.904,1.1036 -1.651,1.4579 -1.651,0.783 z m 20.902,-37.5701 c -0.937,-0.4716 -1.0523,-1.9744 -0.2109,-2.7486 0.7106,-0.6538 5.9962,-2.9961 6.7609,-2.9961 1.2035,0 3.5042,2.7699 3.5042,4.2188 0,0.6368 -0.1889,0.9313 -0.8599,1.3404 -0.7535,0.4594 -1.3343,0.5239 -4.6963,0.5214 -2.5504,0 -4.0582,-0.1146 -4.498,-0.3359 z m 7.673,-1.8621 c 0,-0.1929 -0.2886,-0.6219 -0.6413,-0.9532 -0.5885,-0.5528 -0.7234,-0.5754 -1.6373,-0.2738 -0.5479,0.1808 -1.5987,0.6029 -2.3353,0.938 l -1.3393,0.6093 2.9766,0.015 c 2.3032,0.012 2.9766,-0.064 2.9766,-0.3355 z m -28.1782,114.804 c 0,-0.4114 -0.6047,-0.7193 -3.175,-1.6164 -1.7462,-0.6096 -5.0204,-1.8517 -7.276,-2.7602 -2.2556,-0.9085 -6.899,-2.5747 -10.3188,-3.7026 -6.5024,-2.1446 -8.898,-3.1814 -10.4022,-4.5021 -0.4951,-0.4347 -1.8199,-2.1657 -2.9442,-3.8467 -3.178,-4.7521 -5.0657,-5.9071 -12.9796,-7.9422 -8.0657,-2.074 -11.1742,-3.9378 -15.527,-9.3095 -1.5076,-1.8606 -3.5009,-4.3949 -4.4295,-5.6319 -0.9285,-1.2369 -1.7771,-2.3501 -1.8856,-2.4737 -0.2573,-0.293 -1.3089,0.042 -1.3089,0.4176 0,0.6947 7.9846,10.5634 10.1578,12.5547 1.6487,1.5108 5.2545,3.6294 7.5994,4.4652 0.6382,0.2275 3.3561,1.0039 6.0397,1.7253 6.8693,1.8466 7.67,2.3706 11.166,7.3078 3.5755,5.0492 4.5135,5.6231 14.5997,8.933 3.6637,1.2022 7.9115,2.6944 9.4394,3.3158 8.6243,3.5077 11.2448,4.2222 11.2448,3.0659 z m -45.6807,-27.1104 c 0.7314,-0.4635 0.1912,-1.1646 -1.2828,-1.6646 -2.2913,-0.7774 -8.7095,-4.1149 -10.3853,-5.4004 -1.6226,-1.2448 -2.0697,-1.3845 -2.556,-0.7986 -0.2364,0.2848 -0.2091,0.4659 0.1197,0.7947 1.2266,1.2266 6.1294,3.9843 10.9424,6.1548 2.8177,1.2707 2.6677,1.2274 3.162,0.9141 z m 35.4423,-5.2912 c 3.2623,-6.4134 3.791,-8.0845 4.7191,-14.9163 0.3563,-2.6225 0.4488,-5.83 0.4861,-16.8645 0.063,-18.7596 0.4503,-21.4409 4.3378,-30.0635 2.6338,-5.842 3.7393,-9.8094 4.7829,-17.1646 1.0278,-7.2441 1.8579,-10.4433 3.4345,-13.2369 0.4278,-0.758 2.3669,-3.7453 4.3091,-6.6384 3.9707,-5.9147 5.1621,-8.1665 6.1429,-11.6101 0.8947,-3.1416 2.2544,-11.2283 2.4466,-14.5521 0.2724,-4.7082 -0.7869,-7.229 -5.504,-13.0969 -3.1796,-3.9552 -4.5649,-6.009 -6.0319,-8.9422 -1.2488,-2.497 -2.5402,-6.2007 -2.8094,-8.0573 -0.1002,-0.6912 -0.2096,-1.2568 -0.2431,-1.2568 -0.033,0 -0.764,0.2451 -1.6236,0.5447 -0.8595,0.2996 -3.2296,0.9489 -5.2669,1.4429 -7.897,1.9148 -9.3615,2.6821 -21.4066,11.2158 -4.1643,2.9504 -8.6586,5.4792 -13.1215,7.3833 -7.6177,3.25 -16.5536,7.9876 -20.0849,10.6485 -4.052,3.0533 -5.9547,5.5087 -12.5567,16.2037 -5.9183,9.5877 -7.1718,11.22 -17.3266,22.5644 -7.9301,8.8592 -11.8243,15.0731 -13.3153,21.247 -0.6894,2.855 -0.941,8.3569 -0.7031,15.3768 0.1916,5.6545 0.6281,8.9 1.8047,13.4169 2.0323,7.8016 4.5667,10.3936 15.757,16.1153 7.0737,3.6168 10.8866,6.232 16.4858,11.3069 4.1787,3.7875 5.9913,4.4447 16.8687,6.1165 7.0346,1.0812 8.4158,1.4121 15.4516,3.7021 7.7126,2.5103 13.2468,3.6056 19.2097,3.802 l 1.3503,0.044 z m -19.2626,-2.6906 c -1.9523,-0.2206 -2.9136,-0.4554 -7.0115,-1.7121 -6.8229,-2.0926 -10.1522,-2.6657 -17.4048,-2.996 -4.0836,-0.1861 -4.7998,-0.2843 -5.4239,-0.744 -0.8142,-0.5996 -1.7697,-2.0124 -3.4973,-5.1707 -1.4057,-2.5698 -3.6237,-5.0359 -5.5958,-6.2219 -0.7786,-0.4682 -3.7798,-1.8079 -6.6692,-2.977 -6.9152,-2.7979 -9.322,-3.9441 -11.942,-5.6875 -2.5052,-1.6669 -3.9422,-3.1492 -4.6886,-4.8367 -0.6464,-1.4613 -3.0756,-10.9213 -2.9217,-11.3782 0.1942,-0.5767 0.8334,-0.3579 1.2375,0.4236 0.2146,0.4149 0.8147,2.4687 1.3337,4.5641 1.2159,4.9093 1.8088,6.3487 3.2079,7.7883 2.3646,2.433 5.6603,4.1994 14.5425,7.7943 2.8761,1.164 5.776,2.4364 6.4442,2.8275 2.7081,1.5849 5.424,4.743 7.7018,8.9559 0.7453,1.3784 1.5931,2.6336 1.8841,2.7893 0.2909,0.1557 2.7352,0.3923 5.4316,0.5257 7.0404,0.3484 9.8305,0.8632 17.5929,3.2464 5.8395,1.7928 9.2829,1.9485 12.3774,0.5598 3.1504,-1.4138 4.6695,-3.7988 9.6811,-15.1993 0.9915,-2.2556 1.9159,-4.2499 2.0542,-4.4318 0.3327,-0.4375 0.9622,-0.4216 1.135,0.029 0.1484,0.3867 -5.7478,13.2878 -7.2725,15.9124 -2.7184,4.6794 -6.6032,6.5711 -12.1966,5.9392 z m 0.126,-9.4978 c -4.354,-0.6332 -6.9812,-1.2458 -7.9999,-1.8653 -0.6902,-0.4198 -0.8574,-0.6929 -0.8574,-1.4008 0,-1.5579 0.3619,-1.8039 6.9502,-4.7261 7.1501,-3.1713 7.7077,-3.3568 8.5959,-2.8593 1.1478,0.6428 1.3639,1.4595 1.5542,5.8746 l 0.1774,4.1142 -0.6893,0.6893 c -0.6232,0.6232 -0.8744,0.6868 -2.6196,0.6627 -1.0616,-0.015 -3.3618,-0.2348 -5.1115,-0.4893 z m 5.8137,-5.2388 c -0.1025,-1.8554 -0.2307,-3.423 -0.2848,-3.4836 -0.054,-0.061 -1.6166,0.6142 -3.472,1.4995 -1.8555,0.8853 -4.2665,1.978 -5.3579,2.4282 -2.2004,0.9076 -2.826,1.25 -2.6343,1.4416 0.2323,0.2323 8.8169,1.4427 10.3937,1.4655 l 1.5416,0.022 z m -39.0126,-18.4598 c 0,-0.5105 18.544,-20.2641 23.4153,-24.9426 3.3745,-3.2411 4.2897,-3.8574 4.5529,-3.0667 0.054,0.1628 -1.3469,1.7106 -3.1136,3.4396 -1.7667,1.729 -6.2036,6.2988 -9.8598,10.1551 -9.2982,9.807 -14.2524,14.8166 -14.6527,14.8166 -0.1881,0 -0.3421,-0.1809 -0.3421,-0.402 z m -9.3829,-0.905 c -0.1781,-0.2882 0.2435,-0.7937 5.4195,-6.4977 2.1131,-2.3286 7.0475,-7.9843 10.9655,-12.5682 7.7659,-9.0859 11.9191,-13.4848 17.2073,-18.2257 3.8335,-3.4367 5.1949,-4.5285 5.6473,-4.5285 0.6654,0 0.21,0.7038 -2.0093,3.1053 -1.2733,1.3778 -3.3128,3.6537 -4.5322,5.0577 -1.2194,1.404 -4.8508,5.5858 -8.0698,9.2931 -7.6379,8.7963 -12.2425,13.8657 -15.2886,16.8317 -2.9127,2.8362 -8.5963,7.781 -8.9435,7.781 -0.1334,0 -0.3117,-0.1119 -0.3962,-0.2487 z m 59.3891,-17.1 c 0,-0.6343 6.8009,-13.9839 7.4005,-14.5265 1.2101,-1.0951 0.7576,0.4794 -1.4144,4.9213 -3.9923,8.1642 -5.9861,11.3635 -5.9861,9.6052 z m -53.1812,-1.0389 c 0,-0.9213 10.2227,-12.1266 16.673,-18.2754 11.3314,-10.8019 15.7384,-14.4125 15.7384,-12.8942 0,0.3799 -20.656,21.1834 -27.0065,27.1993 -4.3549,4.1254 -5.4049,4.8967 -5.4049,3.9703 z m -19.5792,-8.2511 c 0,-0.5447 0.5528,-1.2499 2.3789,-3.0347 3.3633,-3.2873 4.4563,-3.7264 5.4606,-2.1937 0.3846,0.587 0.3736,0.7799 -0.142,2.4773 -0.3075,1.0124 -0.7352,2.0168 -0.9503,2.2319 -0.5053,0.5052 -3.6909,1.2287 -5.4104,1.2287 -1.2737,0 -1.3368,-0.033 -1.3368,-0.7095 z m 4.6007,-1.5786 c 0.874,-0.4168 2.0321,-2.0152 1.7003,-2.3469 -0.087,-0.087 -0.8556,0.4993 -1.7081,1.3028 -1.5939,1.5021 -1.5916,1.8068 0.01,1.0441 z m 64.7201,-15.7967 c 0,-0.9945 2.5459,-6.4214 3.4247,-7.3002 0.3038,-0.3038 0.8897,-0.5441 1.3267,-0.5441 0.6427,0 0.8984,0.201 1.4303,1.1244 0.3562,0.6185 0.8673,1.7593 1.1356,2.5351 l 0.488,1.4105 -0.6615,0.5381 c -1.0606,0.8627 -5.7488,3.1231 -6.4775,3.1231 -0.5794,0 -0.6663,-0.1155 -0.6663,-0.8869 z m 4.971,-4.0676 c 0.042,-0.2603 -0.093,-0.7048 -0.3,-0.9877 -0.3532,-0.483 -0.4276,-0.4126 -1.2169,1.1511 l -0.8408,1.6655 1.1408,-0.6778 c 0.6274,-0.3728 1.175,-0.8908 1.2169,-1.1511 z m -65.0314,-5.2275 c 0,-0.2158 1.4009,-1.5054 3.113,-2.8656 1.7122,-1.3603 5.6126,-4.6067 8.6677,-7.2144 3.055,-2.6076 6.1139,-5.1978 6.7975,-5.7559 1.1915,-0.9727 1.7947,-1.0797 1.7947,-0.3182 0,0.299 -9.7438,8.8873 -14.1474,12.4696 -2.2197,1.8058 -5.4887,4.0769 -5.8681,4.0769 -0.1965,0 -0.3574,-0.1766 -0.3574,-0.3924 z m 72.562,-12.1039 c -1.368,-0.6538 -0.5573,-2.7298 2.7149,-6.9521 3.679,-4.7472 4.8207,-5.9522 5.6351,-5.9475 1.092,0.01 4.3288,1.8816 4.8818,2.8283 0.744,1.2739 0.2473,1.9623 -2.9673,4.1132 -1.5345,1.0268 -3.7049,2.5624 -4.8232,3.4125 -3.3191,2.5231 -4.4153,3.0359 -5.4413,2.5456 z m 6.8254,-6.2527 c 1.801,-1.3625 3.428,-2.5361 3.6155,-2.608 0.5662,-0.2173 0.3936,-0.4763 -0.7429,-1.1151 -1.2367,-0.695 -0.9232,-0.8804 -3.3265,1.9669 -2.5643,3.0381 -4.2709,5.3584 -3.5029,4.7625 0.3752,-0.291 2.1557,-1.6439 3.9568,-3.0063 z m -50.2226,-2.4769 c -0.4125,-0.497 -0.3374,-0.5904 7.3194,-9.0993 6.8075,-7.5651 10.3234,-11.2144 10.8046,-11.2144 0.6978,0 0.2775,0.7409 -1.582,2.7882 -1.055,1.1617 -4.3099,4.7898 -7.233,8.0625 -8.2927,9.2844 -8.9243,9.9265 -9.309,9.463 z m -0.1572,-8.162 c -1.2472,-0.9811 -0.9793,-1.9 1.1574,-3.9699 3.1865,-3.087 6.3959,-5.5454 7.1413,-5.4703 1.0156,0.1024 0.9552,0.9675 -0.1716,2.461 -1.8968,2.514 -5.4566,6.6051 -6.1455,7.0628 -0.892,0.5925 -1.1351,0.5823 -1.9816,-0.084 z m 4.072,-4.1283 c 1.6158,-1.6592 1.7357,-1.8329 0.6548,-0.9495 -1.6475,1.3465 -3.2315,2.9803 -2.8895,2.9803 0.1413,0 1.1469,-0.9138 2.2347,-2.0308 z m 32.2017,-9.0806 c -0.7502,-0.5901 -1.9234,-2.4637 -2.1781,-3.4784 -0.2457,-0.979 1.3419,-2.2806 4.9417,-4.0516 3.1283,-1.539 3.9069,-1.7256 4.4534,-1.0671 0.2728,0.3286 0.1861,0.6939 -0.4867,2.0505 -1.2727,2.5663 -3.1726,5.7996 -3.8009,6.4684 -0.7159,0.762 -2.016,0.7967 -2.9294,0.078 z m 2.9015,-3.7671 c 0.7565,-1.1936 1.335,-2.2106 1.2856,-2.26 -0.1026,-0.1026 -2.9621,1.6686 -3.6379,2.2533 -0.4183,0.3619 -0.4096,0.4462 0.1323,1.283 0.319,0.4926 0.6395,0.8953 0.7122,0.8948 0.073,-5e-4 0.7513,-0.9775 1.5078,-2.1711 z m 101.9917,101.1988 c 0.3715,-0.4002 1.6231,-2.1563 2.7812,-3.9026 1.1582,-1.7462 3.2508,-4.757 4.6504,-6.6906 1.3995,-1.9336 2.7845,-4.157 3.0778,-4.9408 1.533,-4.0972 1.4126,-7.8383 -0.4911,-15.2648 -1.4613,-5.7005 -2.4158,-10.687 -3.1068,-16.2309 -0.3763,-3.0188 -0.4652,-5.9804 -0.4806,-16.0073 -0.019,-12.0865 -0.03,-12.3333 -0.6197,-14.0229 -0.7807,-2.2346 -1.7664,-3.7061 -4.9639,-7.411 -1.443,-1.672 -3.0286,-3.6651 -3.5236,-4.4291 -0.4949,-0.764 -1.0286,-1.3822 -1.186,-1.3739 -0.4575,0.024 -6.1557,7.0262 -11.1871,13.7468 -8.5136,11.3721 -14.8089,16.6953 -22.5688,19.0839 -2.9145,0.8972 -6.2608,0.8606 -8.0698,-0.088 -2.0449,-1.0724 -3.0928,-2.395 -5.8299,-7.3577 -2.085,-3.7804 -4.263,-6.979 -6.8219,-10.0187 -3.1235,-3.7104 -4.8354,-6.1907 -5.3636,-7.7712 -0.4028,-1.2052 -0.4681,-2.5129 -0.4854,-9.7268 -0.019,-7.8799 -0.054,-8.457 -0.6377,-10.5833 -1.4181,-5.163 -2.378,-6.95 -7.4828,-13.9294 -1.2928,-1.7675 -2.3506,-3.4133 -2.3506,-3.6574 0,-1.0022 1.0331,-0.1304 3.1265,2.6381 5.0666,6.7009 6.4919,9.3362 7.9295,14.6616 0.6504,2.4095 0.692,2.965 0.8336,11.135 l 0.149,8.5989 0.7206,1.4552 c 0.3964,0.8004 1.6852,2.6459 2.864,4.1011 4.1762,5.1555 6.2866,8.1509 8.6123,12.224 3.6794,6.4438 4.8525,7.4874 8.4164,7.4874 2.335,0 5.3187,-0.8525 8.3585,-2.3883 5.861,-2.961 10.3945,-7.5231 19.975,-20.1012 2.1614,-2.8377 4.8318,-6.2092 5.9342,-7.4923 3.3822,-3.9365 3.0862,-3.2374 2.4478,-5.7812 -0.3043,-1.2126 -0.9683,-4.6454 -1.4756,-7.6286 -1.6219,-9.5378 -3.9603,-17.301 -7.8314,-25.9997 -3.2703,-7.3483 -5.9961,-8.1808 -12.9199,-3.946 -12.1095,7.4066 -28.6904,16.4199 -29.5789,16.0789 -0.2336,-0.09 -0.3654,-0.3989 -0.3161,-0.7413 0.066,-0.4599 1.0331,-1.0975 4.4503,-2.9349 7.5814,-4.0766 15.8131,-8.7063 21.6959,-12.2025 3.1287,-1.8594 6.2774,-3.6143 6.997,-3.8998 1.805,-0.716 4.3103,-0.695 5.8469,0.049 2.9462,1.4263 5.5032,6.2764 9.5519,18.1184 1.2722,3.721 2.0243,6.8155 3.2476,13.3614 1.1822,6.3263 2.1289,10.3188 2.4467,10.3188 0.3854,0 1.8098,-2.7572 2.3801,-4.6072 0.513,-1.6643 0.5497,-2.2245 0.4076,-6.2177 -0.1886,-5.299 -0.6208,-7.6901 -2.3029,-12.7393 -1.6524,-4.9603 -3.1266,-8.261 -6.1868,-13.8521 -1.3608,-2.4861 -3.0428,-5.5918 -3.7378,-6.9014 -2.1066,-3.9694 -4.9283,-8.9107 -5.9681,-10.4511 -1.1975,-1.7741 -5.0459,-5.5562 -5.6535,-5.5562 -0.5896,0 -1.3047,0.3843 -6.9439,3.7323 -7.8626,4.668 -10.6715,5.9009 -19.4952,8.5567 -9.3916,2.8267 -11.4244,3.7906 -20.5241,9.7323 -4.8173,3.1454 -9.3574,5.9666 -14.2795,8.8733 -0.295,0.1742 0.1985,1.3862 2.4006,5.8951 2.671,5.4694 3.8103,7.3358 8.7713,14.3697 3.9993,5.6704 5.0614,8.2391 5.4808,13.256 0.7475,8.941 1.1746,10.9863 3.0963,14.8273 2.1773,4.3518 3.5889,6.134 9.3254,11.7739 6.5354,6.4253 7.8546,7.8938 10.6588,11.865 4.3772,6.1989 7.1683,8.4215 14.6835,11.6924 5.6818,2.4729 6.8721,3.6518 9.6907,9.5978 0.9499,2.0038 2.9371,5.4943 4.416,7.7565 3.395,5.193 3.9686,6.3544 5.5524,11.2405 0.9531,2.9405 1.6038,4.4504 2.4975,5.7946 1.4542,2.1875 3.4924,4.0865 5.2896,4.9284 1.786,0.8366 2.7732,0.8085 3.6193,-0.1028 z m -8.7786,-22.1264 c 0,-0.6276 0.5441,-0.8425 4.9408,-1.9512 2.3536,-0.5935 4.8516,-1.3644 5.551,-1.7132 1.9185,-0.9568 1.9768,-1.473 0.6705,-5.9359 -1.8887,-6.4523 -3.5314,-13.9569 -4.1514,-18.9646 -0.3938,-3.1812 -0.5675,-14.5022 -0.2358,-15.3667 0.215,-0.5603 0.8305,-0.5327 0.9905,0.044 0.071,0.2546 0.1248,3.1419 0.1204,6.4161 -0.01,4.0616 0.1327,7.046 0.4347,9.3927 0.5849,4.5451 2.3119,12.3379 3.7455,16.9005 1.5381,4.8952 1.653,5.8506 0.8471,7.0443 -0.9226,1.3667 -2.893,2.2832 -7.4162,3.4495 -4.3529,1.1225 -5.4971,1.2648 -5.4971,0.684 z m -15.9924,-19.1906 c -0.2204,-0.3566 2.9385,-3.1599 7.0649,-6.2698 3.7399,-2.8186 5.8416,-4.0731 6.824,-4.0731 0.8982,0 0.4787,0.5685 -1.3559,1.8372 -0.935,0.6466 -3.365,2.426 -5.3999,3.9541 -4.4344,3.3301 -6.5026,4.7921 -6.7794,4.7921 -0.1128,0 -0.272,-0.1083 -0.3537,-0.2405 z m -12.2572,-10.2239 c -2.4115,-0.6493 -3.5974,-1.4508 -3.0122,-2.0359 0.2014,-0.2015 0.8412,-0.1181 2.2127,0.2884 3.2083,0.951 4.6357,0.7823 12.1396,-1.4344 3.3276,-0.9829 4.474,-1.1206 4.474,-0.5373 0,0.4302 0,0.4311 -3.9687,1.7893 -3.8212,1.3084 -8.0122,2.3446 -9.3927,2.3223 -0.5821,-0.01 -1.6858,-0.186 -2.4527,-0.3924 z m 11.565,-48.4432 c -3.5342,-3.016 -6.5894,-6.0227 -7.0007,-6.8894 -0.5266,-1.1097 -0.2839,-1.9127 0.791,-2.617 0.5778,-0.3787 1.2327,-0.427 4.4438,-0.3281 5.3887,0.166 5.7786,0.4336 7.0831,4.8614 1.0178,3.4544 1.0043,3.8366 -0.1714,4.8689 -1.9877,1.7452 -3.1942,1.7697 -5.1458,0.1042 z m 3.3958,-1.7482 c 0.2863,-0.3508 -0.3986,-3.5254 -1.0583,-4.9058 -0.3388,-0.7089 -0.3776,-0.7182 -3.6472,-0.869 -1.8176,-0.084 -3.3389,-0.129 -3.3806,-0.1004 -0.088,0.06 3.0155,3.0449 4.5738,4.3991 2.0896,1.8158 2.9427,2.1743 3.5123,1.4761 z m -102.3431,-4.4265 c 1.0259,-0.5991 4.0371,-2.6481 6.6917,-4.5533 6.3638,-4.5673 9.7855,-6.8519 11.7134,-7.8211 2.5167,-1.2653 6.3894,-2.6161 9.2528,-3.2275 4.8187,-1.029 7.803,-1.8558 9.1361,-2.5313 2.1784,-1.1039 6.6464,-3.9322 13.3535,-8.4528 10.5027,-7.0789 13.4712,-8.5873 21.6113,-10.9814 9.0697,-2.6675 12.451,-4.065 18.6518,-7.7089 4.4116,-2.5924 7.6753,-4.206 8.5074,-4.206 0.2852,0 1.4438,-0.6638 2.5746,-1.4751 2.6682,-1.9143 4.5421,-3.1079 6.193,-3.9444 2.8256,-1.4319 1.8834,-1.4686 -9.9131,-0.3866 -8.8323,0.8101 -13.3518,1.6747 -18.4534,3.5303 -6.7513,2.4556 -11.8098,5.2218 -19.0378,10.4107 -2.2796,1.6366 -5.909,4.1471 -8.0654,5.5788 -6.3442,4.2125 -8.2512,5.2838 -25.7486,14.4644 -6.4323,3.3749 -11.6477,6.46 -14.481,8.5659 -2.5816,1.9189 -6.7041,5.6419 -11.8329,10.686 -4.2765,4.206 -4.2964,4.4719 -0.1534,2.0523 z m 58.4819,-34.3886 c 0,-1.2218 14.068,-9.0448 20.6375,-11.4761 3.7351,-1.3823 6.4811,-2.1379 7.0192,-1.9314 0.7541,0.2893 0.2339,0.5791 -3.1828,1.7732 -6.3324,2.2132 -14.2436,6.0371 -21.2668,10.2795 -2.647,1.5989 -3.2071,1.8355 -3.2071,1.3548 z" id="path1" /></g></svg>